<svg width="596" height="556" viewBox="0 0 596 556" fill="none" xmlns="http://www.w3.org/2000/svg">
<g filter="url(#filter0_d_208_357)">
<rect x="5" y="5" width="585.717" height="545.878" rx="4.15032" fill="black"/>
<rect x="5.41503" y="5.41503" width="584.887" height="545.048" rx="3.73529" stroke="black" stroke-width="0.830064"/>
<path d="M396.316 393.614C389.673 396.864 382.764 400.115 375.588 403.368C368.676 406.352 361.229 409.074 353.247 411.533C345.263 413.726 336.476 415.524 326.887 416.928C317.563 418.33 307.302 419.073 296.102 419.156C260.37 419.42 232.711 411.624 213.127 395.768C193.809 379.911 184.013 353.316 183.737 315.983C183.577 294.384 186.761 274.093 193.287 255.111C199.812 235.862 209.555 219.123 222.517 204.894C235.477 190.397 251.526 178.945 270.664 170.537C289.803 162.129 311.772 157.833 336.571 157.649C348.304 157.563 358.976 158.284 368.588 159.813C378.466 161.34 387.281 163.408 395.034 166.018C403.052 168.358 410.138 170.973 416.293 173.861C422.714 176.747 428.468 179.504 433.554 182.133L419.705 256.638L347.707 257.17C347.954 254.501 348.195 251.033 348.43 246.764C348.932 242.494 349.3 238.224 349.535 233.956C349.768 229.421 350.002 225.019 350.238 220.75C350.473 216.482 350.579 212.881 350.558 209.948C350.542 207.814 350.391 205.415 350.105 202.751C349.816 199.819 349.129 197.024 348.043 194.366C346.956 191.707 345.207 189.587 342.795 188.004C340.648 186.153 337.708 185.242 333.975 185.269C327.042 185.321 320.664 188.301 314.84 194.211C309.282 199.852 304.272 207.49 299.809 217.123C295.345 226.489 291.424 237.185 288.046 249.211C284.668 261.236 281.826 273.524 279.518 286.075C277.476 298.357 275.832 310.502 274.587 322.512C273.609 334.52 273.154 345.057 273.221 354.123C273.241 356.79 273.399 360.122 273.695 364.12C273.991 368.118 274.82 371.978 276.181 375.702C277.541 379.425 279.565 382.61 282.251 385.257C285.204 387.902 289.081 389.207 293.881 389.171C302.147 389.11 310.109 383.985 317.768 373.794C325.424 363.337 332.088 344.888 337.759 318.445L411.757 317.898L396.316 393.614Z" fill="#FFD470"/>
</g>
<defs>
<filter id="filter0_d_208_357" x="0.0196182" y="0.0196182" width="595.678" height="555.839" filterUnits="userSpaceOnUse" color-interpolation-filters="sRGB">
<feFlood flood-opacity="0" result="BackgroundImageFix"/>
<feColorMatrix in="SourceAlpha" type="matrix" values="0 0 0 0 0 0 0 0 0 0 0 0 0 0 0 0 0 0 127 0" result="hardAlpha"/>
<feMorphology radius="1.66013" operator="dilate" in="SourceAlpha" result="effect1_dropShadow_208_357"/>
<feOffset/>
<feGaussianBlur stdDeviation="1.66013"/>
<feComposite in2="hardAlpha" operator="out"/>
<feColorMatrix type="matrix" values="0 0 0 0 1 0 0 0 0 0.83125 0 0 0 0 0.4375 0 0 0 1 0"/>
<feBlend mode="normal" in2="BackgroundImageFix" result="effect1_dropShadow_208_357"/>
<feBlend mode="normal" in="SourceGraphic" in2="effect1_dropShadow_208_357" result="shape"/>
</filter>
</defs>
</svg>
